<svg xmlns="http://www.w3.org/2000/svg" width="24" height="24" viewBox="0 0 24 24" fill="none" stroke="currentColor" stroke-width="2" stroke-linecap="round" stroke-linejoin="round">
  <circle cx="12" cy="12" r="3" />
  <path d="M19.4 15a1.8 1.8 0 0 0 .36 1.98l.04.04a2 2 0 0 1-2.83 2.83l-.04-.04a1.8 1.8 0 0 0-1.98-.36 1.8 1.8 0 0 0-1.05 1.64V21a2 2 0 0 1-4 0v-.05a1.8 1.8 0 0 0-1.05-1.64 1.8 1.8 0 0 0-1.98.36l-.04.04a2 2 0 0 1-2.83-2.83l.04-.04A1.8 1.8 0 0 0 4.6 15a1.8 1.8 0 0 0-1.64-1.05H2a2 2 0 0 1 0-4h.05A1.8 1.8 0 0 0 3.69 8.9a1.8 1.8 0 0 0-.36-1.98l-.04-.04a2 2 0 0 1 2.83-2.83l.04.04a1.8 1.8 0 0 0 1.98.36 1.8 1.8 0 0 0 1.05-1.64V3a2 2 0 0 1 4 0v.05a1.8 1.8 0 0 0 1.05 1.64 1.8 1.8 0 0 0 1.98-.36l.04-.04a2 2 0 0 1 2.83 2.83l-.04.04a1.8 1.8 0 0 0-.36 1.98 1.8 1.8 0 0 0 1.64 1.05H22a2 2 0 0 1 0 4h-.05A1.8 1.8 0 0 0 19.4 15z" />
</svg>
